<?xml version="1.0" encoding="UTF-8"?>
<svg id="Layer_2" data-name="Layer 2" xmlns="http://www.w3.org/2000/svg" viewBox="0 0 580.17 290.65">
  <defs>
    <style>
      .cls-1 {
        fill: #fff;
      }

      .cls-2 {
        fill: #ff2800;
      }

      .cls-3 {
        fill: none;
      }
    </style>
  </defs>
  <g id="Layer_1-2" data-name="Layer 1">
    <g>
      <g>
        <g>
          <g>
            <g>
              <path d="m192.81,16.23s-.03-.04-.09-.1c-.1-.09-.28-.2-.59-.24-.99-.14-65.89,19.19-96.7,18.51C67.99,33.8,1.43,15.89.76,15.89c-.35-.01-.53.16-.53.16-.14.12-.23.3-.23.51v53.44c0,.38.3.68.68.68h60.36c.05,11.71.11,23.43.16,35.14,0,3.05.03,6.09.04,9.13.02,4.72.04,9.44.06,14.15.02,2.79.03,5.58.04,8.37.07,14.64.13,29.28.19,43.92.02,2.8.03,5.59.04,8.38.03,4.85.05,9.69.07,14.53.01,3.04.03,6.08.04,9.12.01,3.14.03,6.27.04,9.41,0,.38.31.68.68.68h68.08c.38,0,.68-.3.68-.68V71.36c0-.37.31-.68.68-.68h60.37c.19,0,.37-.08.5-.22.11-.12.18-.28.18-.46V16.56c0-.12-.03-.23-.08-.33Z"/>
              <path class="cls-2" d="m563.68,34.71c-20.43-20.98-48.65-17.79-52.06-17.35-.01,0-.03.01-.05.01-13.29,2.38-23.67,5.09-28.71,6.48-1.44.4-2.09.59-2.9.82-8.43,2.36-24.2,6.79-43.81,7.3-18.06.46-31.48-2.61-41.38-4.87-.87-.2-14.12-3.26-21.65-6.26-2.09-.83-3.73-1.66-4.55-2.42v204.41c0,.38.3.68.68.68h68.08c.37,0,.68-.3.68-.68v-75.2c0-.38.3-.68.68-.68h70.83c10.84,0,21.38-2.46,30.86-6.85,2.31-1.07,4.55-2.25,6.72-3.54,4.39-2.6,8.48-5.64,12.19-9.07.29-.26.58-.53.86-.8,1.14-1.08,2.24-2.2,3.3-3.36.7-.77,1.39-1.56,2.05-2.36,9.1-10.88,14.65-24.45,14.65-39.31,0-5.55,1.25-28.74-16.47-46.95Zm-125.5,36.2c.12-.14.31-.23.51-.23h60.74c5.56,0,9.82,2.36,10.97,7.45,1.63,7.21-4.4,13.92-11.79,13.92h-95.52c.38-1.89.65-3.74.83-5.55.04-.28.06-.55.09-.83.13-1.31.23-2.65.28-4.01.14-3.76-.05-7.35-.49-10.75h34.38Z"/>
              <path d="m403.8,70.91c-.41-3.24-1.05-6.3-1.86-9.18-.06-.23-.12-.45-.18-.67-.44-1.51-.91-2.97-1.43-4.37-4.03-11.15-10-18.84-12.51-21.98-4.39-5.49-9.34-10.06-14.7-13.87C348.88,3.57,316.38,1.78,290.12.33c-14.93-.82-37.31-.45-64.22,5.37-4.74,1.45-9.47,2.94-14.21,4.43-4.02,1.25-8.61,3.08-12.74,3.64-.3.08-.6.09-.9.12-.33.11-.65.22-.99.29-.02.01-.04.01-.06.01-.96.51-2.05.89-3.24,1.11-.34.12-.66.26-1.02.36l-.02.47v.18s-.01,54.61-.01,54.61c.1-.05.2-.11.3-.17.04-.02.08-.05.12-.07h69.02c-.07.01-.14.02-.2.03-.01.01-.02.01-.03.01-.04-.01-.08,0-.11.01-.01,0-.03,0-.04.02,0,0-.03,0-.04.01h-.02s0,0,0,0h-.01s-.06.03-.09.04c-.02.01-.05.02-.08.03,0,0-.02.01-.02.01h0s.34.01.34.01h.54s0-.01.02-.01t.01-.01l.02-.02s0-.01.01-.01h.01s.03-.02.05-.03c0-.01.01-.01.01-.01h0s.01-.01.02-.01h0s.01-.01.01-.01h.01s.01,0,.01,0h0s.02-.02.02-.02h.04s.02-.01.03-.01h.01s.01-.01.02,0t.02,0s.02-.01.04-.01c0-.01.02-.01.03,0h.01s.02-.01.03-.01h60.75c.46,0,.92.02,1.36.06,1.73.12,3.3.5,4.66,1.16.05.01.1.03.15.07,2.41,1.17,4.13,3.21,4.8,6.16.86,3.84-.45,7.54-2.98,10.16-1.35,1.41-3.06,2.5-4.98,3.13-.54.19-1.1.33-1.67.43-.7.13-1.42.2-2.16.2h-60.04s-.01,0-.02,0h-.05s-.01-.01-.01-.01h0s0,.01-.02.01h-.04s0,0-.02,0h-69.32c-.06.01-.14.01-.21,0h-.32v130.78c0,.38.3.68.68.68h68.08c.38,0,.68-.3.68-.68v-75.2c0-.38.3-.68.68-.68h70.84c5.11,0,10.15-.55,15.05-1.59h.01c6.99-1.48,13.67-3.96,19.84-7.29,5.19-2.79,10.01-6.19,14.32-10.08.32-.29.78-.71,1.34-1.27,3.2-3.18,9.85-10.65,14.63-21.58h0c.62-1.42,1.2-2.89,1.74-4.42.78-2.19,1.47-4.49,2.04-6.9.14-.58.27-1.17.39-1.77.37-1.79.67-3.64.89-5.55.04-.28.06-.55.09-.83.13-1.31.23-2.65.28-4.01.14-3.76-.05-7.35-.49-10.75Z"/>
            </g>
            <g>
              <path class="cls-1" d="m193.13,70.68s-.08.05-.12.07c-.1.06-.2.12-.3.17-.03.02-.06.04-.09.05v-.29h.51Z"/>
              <path class="cls-3" d="m261.48,70.85s.02-.01.02-.01c0,0,.01-.01.02-.01.03-.01.06-.02.08-.03.07-.03.13-.06.21-.07.04-.01.09-.02.14-.02.06-.01.13-.02.2-.02"/>
            </g>
            <path class="cls-1" d="m404.29,81.66c-.05,1.36-.15,2.7-.28,4.01-.03.28-.05.55-.09.83-.18,1.81-.45,3.66-.83,5.55h-1.01v-21.14h1.72c.44,3.4.63,6.99.49,10.75Z"/>
            <path d="m404.01,85.67c-.03.28-.05.55-.09.83-.18,1.81-.45,3.66-.83,5.55-.11.59-.24,1.18-.38,1.77-.51,2.27-1.18,4.58-2.03,6.9-.53,1.47-1.13,2.94-1.82,4.41l.14-4.49.21-6.99,1.12-36.96v-.03s.65,1.6,1.43,4.4c.06.22.12.44.18.67.63,2.38,1.31,5.51,1.78,9.18.54,4.29.78,9.33.29,14.76Z"/>
          </g>
          <path class="cls-1" d="m525.82,103.76c-6.55,0-12.83,1.16-18.65,3.29-3.63,1.33-7.09,3.04-10.31,5.07-11.66,7.35-20.35,18.99-23.82,32.69-.18.71-.35,1.42-.49,2.14h9.23c3.83-14.96,15.09-26.96,29.6-31.84.23-.07.45-.15.68-.22,4.34-1.38,8.97-2.13,13.76-2.13,13.23,0,25.15,5.68,33.47,14.73.16.18.33.37.49.56l.37-1.36c1.14-1.08,2.24-2.2,3.3-3.36.7-.77,1.39-1.56,2.05-2.36-9.93-10.59-24.05-17.21-39.68-17.21Zm33.47,23.73c.16.18.33.37.49.56l.37-1.36c-.28.27-.57.54-.86.8Z"/>
          <g>
            <polygon class="cls-1" points="115.55 189.06 131.16 188.9 131.16 195.9 110.12 196.12 103.94 196.19 103.86 189.61 103.86 189.19 104.24 189.19 115.55 189.06"/>
            <polygon class="cls-1" points="262.15 187.49 262.15 194.49 192.71 195.23 192.71 188.23 262.15 187.49"/>
            <polygon class="cls-1" points="435.72 192.62 432.32 192.66 368.57 193.34 368.57 186.34 374.58 186.28 381.58 186.2 432.32 185.66 435.64 185.62 435.64 185.66 435.68 189.16 435.72 192.62"/>
          </g>
          <path class="cls-1" d="m113.59,116.81l-6.73,1.92-1.4-4.9-15.52-54.39H30.59l-14.02,11.24H.68c-.38,0-.68-.3-.68-.68v-3.29h10.33l17.8-14.27h67.09l16.47,57.72,1.9,6.65Z"/>
          <g>
            <path class="cls-1" d="m111.69,110.16c6.79-4.01,13.3-7.84,19.47-11.46v8.12c-7.38,4.34-15.2,8.95-23.4,13.79-.77.45-1.54.91-2.32,1.37l-3.56-6.03c.08-.05.16-.1.24-.14,1.12-.66,2.23-1.32,3.34-1.98,2.1-1.24,4.18-2.46,6.23-3.67Z"/>
            <path class="cls-1" d="m324.94,70.74c-.44-.04-.9-.06-1.36-.06h-1.01l-.24-2.13,4.26-3.04.09-.06,12.68-9.06,1.82-18.2c-25.76,1.09-50.67,3.42-74.09,6.94-14.41,2.16-26.09,4.48-39.78,9.35-3.8,1.35-7.62,2.85-11.33,4.46-9.48,4.11-16.17,7.92-19.02,9.55-1.06.61-2.34,1.34-3.83,2.19-.04.02-.08.05-.12.07-.1.06-.2.12-.3.17-.03.02-.06.04-.09.05-.33.19-.67.39-1.02.59.22-.41.6-.67,1.02-.76v-.12h.09v-.22c-.13.14-.31.22-.5.22h-13.08c5.9-3.41,10.49-6.06,13.58-7.83.06-.03.12-.07.18-.1.21-.12.41-.23.6-.34,4.6-2.62,10.99-6.11,19.71-9.89,3.85-1.67,7.81-3.23,11.77-4.64,14.21-5.05,26.26-7.45,41.08-9.68,24.9-3.73,51.43-6.15,78.88-7.17l4.01-.15-2.93,29.36-15.53,11.09-.74.53v.11s-.09-.06-.14-.07c-1.36-.66-2.93-1.04-4.66-1.16Z"/>
            <path class="cls-1" d="m513.49,108.41l-1.43,6.48-.08.35c-.2-.04-.4-.09-.6-.13-4.79-1.05-9.65-2.05-14.52-2.99-2.84-.56-5.69-1.09-8.53-1.6-11.24-2.03-34.64-5.79-65.07-8.29-7.57-.62-15.13-1.12-22.58-1.51h-.08c-.53-.03-1.07-.05-1.6-.08-2.43-.12-4.85-.23-7.25-.32-7.68-.3-15.43-.47-23.18-.52-5.45-.04-10.9,0-16.32.07h-.37l-26.66-5.33-.06-.53-.24-2.16c.57-.1,1.13-.24,1.67-.43,1.92-.63,3.63-1.72,4.98-3.13l.04.39,4.81.96,5.77,1.15h0s8.41,1.69,8.41,1.69h.02l1.9.38c1.82-.03,3.64-.05,5.46-.06h.04c3.51-.03,7.03-.03,10.55,0,4.55.03,9.11.1,13.65.23,1.68.03,3.35.07,5.02.14,1.6.04,3.19.1,4.78.16,2.38.09,4.78.2,7.19.32,1.14.05,2.28.11,3.43.17h.07c6.98.38,14.04.86,21.12,1.44,30.72,2.51,54.38,6.32,65.74,8.37,5.87,1.05,11.76,2.2,17.6,3.42,2.11.44,4.22.9,6.32,1.36Z"/>
          </g>
          <path class="cls-1" d="m478.58,145.21l-.16,1.74h-39.73c-.38,0-.68.3-.68.68v4.74c-17.68,1.62-36.92,5.83-47.82,15.81-5.43,4.99-8.26,10.9-8.61,18.02-.02.57-.03,1.13-.03,1.71l-7,.05c0-.56.01-1.13.03-1.68.34-9.13,4-16.95,10.89-23.26,21.93-20.08,70.97-19.16,87.57-18.21,3.13.18,5.11.36,5.54.4Z"/>
          <path class="cls-1" d="m353.02,92.58c-.8-.04-1.6-.07-2.4-.1l1.9.38c1.82-.03,3.64-.05,5.46-.06-1.66-.07-3.31-.15-4.96-.22Zm0,0c-.8-.04-1.6-.07-2.4-.1l1.9.38c1.82-.03,3.64-.05,5.46-.06-1.66-.07-3.31-.15-4.96-.22Zm0,0c-.8-.04-1.6-.07-2.4-.1l1.9.38c1.82-.03,3.64-.05,5.46-.06-1.66-.07-3.31-.15-4.96-.22Zm0,0c-.8-.04-1.6-.07-2.4-.1l1.9.38c1.82-.03,3.64-.05,5.46-.06-1.66-.07-3.31-.15-4.96-.22Zm0,0c-.8-.04-1.6-.07-2.4-.1l1.9.38c1.82-.03,3.64-.05,5.46-.06-1.66-.07-3.31-.15-4.96-.22Zm0,0c-.8-.04-1.6-.07-2.4-.1l1.9.38c1.82-.03,3.64-.05,5.46-.06-1.66-.07-3.31-.15-4.96-.22Zm0,0c-.8-.04-1.6-.07-2.4-.1l1.9.38c1.82-.03,3.64-.05,5.46-.06-1.66-.07-3.31-.15-4.96-.22Zm0,0c-.8-.04-1.6-.07-2.4-.1l1.9.38c1.82-.03,3.64-.05,5.46-.06-1.66-.07-3.31-.15-4.96-.22Zm0,0c-.8-.04-1.6-.07-2.4-.1l1.9.38c1.82-.03,3.64-.05,5.46-.06-1.66-.07-3.31-.15-4.96-.22Zm0,0c-.8-.04-1.6-.07-2.4-.1l1.9.38c1.82-.03,3.64-.05,5.46-.06-1.66-.07-3.31-.15-4.96-.22Zm0,0c-.8-.04-1.6-.07-2.4-.1l1.9.38c1.82-.03,3.64-.05,5.46-.06-1.66-.07-3.31-.15-4.96-.22Zm0,0c-.8-.04-1.6-.07-2.4-.1l1.9.38c1.82-.03,3.64-.05,5.46-.06-1.66-.07-3.31-.15-4.96-.22Zm0,0c-.8-.04-1.6-.07-2.4-.1l1.9.38c1.82-.03,3.64-.05,5.46-.06-1.66-.07-3.31-.15-4.96-.22Zm0,0c-.8-.04-1.6-.07-2.4-.1l1.9.38c1.82-.03,3.64-.05,5.46-.06-1.66-.07-3.31-.15-4.96-.22Zm0,0c-.8-.04-1.6-.07-2.4-.1l1.9.38c1.82-.03,3.64-.05,5.46-.06-1.66-.07-3.31-.15-4.96-.22Zm34.13-6.72c-.13-1.02-.32-2.45-.58-4.7-.32-2.73-.44-4.06-.51-4.83-.07-.7-.1-1.02-.17-1.41-1.14-6.28-8.54-12.08-17.32-14.56-3.21-.91-6.61-1.37-9.96-1.25-11.6.42-17.33,5.23-20.1,9.19-3.42,4.9-4.37,11.17-2.82,18.64.18.87.42,1.77.73,2.7.59,1.85,1.42,3.8,2.47,5.83l.81,1.55,1.45.06c3.88.15,7.76.33,11.65.5,5.19.23,10.46.47,15.77.66,5.19.18,10.42.32,15.61.37l2.02.02.44-1.97c.29-1.27.48-2.44.6-3.49.17-1.46.22-2.68.23-3.59,0-1.34-.09-1.99-.32-3.72Zm-5.01,7.72c-4.51-.06-9.05-.19-13.57-.35-3.53-.13-7.06-.27-10.55-.43h-.04c-1.66-.07-3.31-.15-4.96-.22-.8-.04-1.6-.07-2.4-.1h-.02c-2.6-.12-5.2-.23-7.79-.34-.22-.45-.42-.9-.62-1.34h0c-.75-1.75-1.29-3.37-1.6-4.88-1.27-6.07-.59-11.03,2.02-14.76,2.11-3.02,6.64-6.71,16.18-7.05,3.36-.12,6.72.46,9.78,1.49,4.35,1.47,8.09,3.83,10.3,6.36,0,.01.01.01.01.01,1.13,1.27,1.86,2.59,2.09,3.84.05.27.06.49.11.98,0,.03,0,.06.01.1.07.8.2,2.16.51,4.85.27,2.28.46,3.74.6,4.77,0,.08.02.16.03.23.19,1.47.24,1.88.24,2.83,0,.33-.01.76-.05,1.29-.03.61-.09,1.34-.2,2.17-.03.18-.05.36-.08.55Zm-29.12-1c-.8-.04-1.6-.07-2.4-.1l1.9.38c1.82-.03,3.64-.05,5.46-.06-1.66-.07-3.31-.15-4.96-.22Zm0,0c-.8-.04-1.6-.07-2.4-.1l1.9.38c1.82-.03,3.64-.05,5.46-.06-1.66-.07-3.31-.15-4.96-.22Zm0,0c-.8-.04-1.6-.07-2.4-.1l1.9.38c1.82-.03,3.64-.05,5.46-.06-1.66-.07-3.31-.15-4.96-.22Zm0,0c-.8-.04-1.6-.07-2.4-.1l1.9.38c1.82-.03,3.64-.05,5.46-.06-1.66-.07-3.31-.15-4.96-.22Zm0,0c-.8-.04-1.6-.07-2.4-.1l1.9.38c1.82-.03,3.64-.05,5.46-.06-1.66-.07-3.31-.15-4.96-.22Zm0,0c-.8-.04-1.6-.07-2.4-.1l1.9.38c1.82-.03,3.64-.05,5.46-.06-1.66-.07-3.31-.15-4.96-.22Zm0,0c-.8-.04-1.6-.07-2.4-.1l1.9.38c1.82-.03,3.64-.05,5.46-.06-1.66-.07-3.31-.15-4.96-.22Zm0,0c-.8-.04-1.6-.07-2.4-.1l1.9.38c1.82-.03,3.64-.05,5.46-.06-1.66-.07-3.31-.15-4.96-.22Zm0,0c-.8-.04-1.6-.07-2.4-.1l1.9.38c1.82-.03,3.64-.05,5.46-.06-1.66-.07-3.31-.15-4.96-.22Zm0,0c-.8-.04-1.6-.07-2.4-.1l1.9.38c1.82-.03,3.64-.05,5.46-.06-1.66-.07-3.31-.15-4.96-.22Zm0,0c-.8-.04-1.6-.07-2.4-.1l1.9.38c1.82-.03,3.64-.05,5.46-.06-1.66-.07-3.31-.15-4.96-.22Zm0,0c-.8-.04-1.6-.07-2.4-.1l1.9.38c1.82-.03,3.64-.05,5.46-.06-1.66-.07-3.31-.15-4.96-.22Zm0,0c-.8-.04-1.6-.07-2.4-.1l1.9.38c1.82-.03,3.64-.05,5.46-.06-1.66-.07-3.31-.15-4.96-.22Zm0,0c-.8-.04-1.6-.07-2.4-.1l1.9.38c1.82-.03,3.64-.05,5.46-.06-1.66-.07-3.31-.15-4.96-.22Zm0,0c-.8-.04-1.6-.07-2.4-.1l1.9.38c1.82-.03,3.64-.05,5.46-.06-1.66-.07-3.31-.15-4.96-.22Z"/>
          <path class="cls-1" d="m382.38,90.87l-.38-.08c-4.25-.93-18.33-4.14-20.92-6.13-3.62-2.77-2.28-11.05-.24-14.14.7-1.05,2.55-3.85,22.07,2.75l-1.28,3.79c-6.99-2.36-15.51-4.48-17.63-4.04-1.3,2.36-1.65,7.57-.49,8.46,1.32.99,10.79,3.5,18.97,5.31l1.69-.28.66,3.95-2.45.41Z"/>
          <g>
            <path class="cls-1" d="m131.16,147.52s0-.01.01-.01v1.51-.02s-.59-1.21-.59-1.21c.19-.09.39-.18.58-.27Z"/>
            <path class="cls-1" d="m371.31,109.64l-.17,1.99c-.86-.07-1.71-.15-2.57-.21-30.03-2.47-60.3-2.4-90.02.21-19.17,1.69-49.24,4.34-85.84,14.75v-2.09c36.53-10.32,66.52-12.96,85.67-14.65,29.78-2.62,60.11-2.7,90.19-.22.91.06,1.83.14,2.74.22Z"/>
          </g>
          <g>
            <path class="cls-1" d="m126.36,168.98c1.54.05,3.14.1,4.8.15v7c-1.74-.06-3.41-.11-5.02-.16l.22-6.99Z"/>
            <path class="cls-1" d="m262.15,172.34v6.98c-1.76.03-3.66.04-5.75.04-12.74,0-32.1-.44-63.69-1.36v-7c37.21,1.08,57.26,1.51,69.44,1.34Z"/>
            <path class="cls-1" d="m368.57,143.2v-5.13c-6.17,3.33-12.85,5.81-19.84,7.29,4.7-2.33,9.29-4.65,13.77-6.92,2.03-1.03,4.05-2.07,6.07-3.13,5.28-2.77,10.51-5.64,15.66-8.59,1.43-.81,2.84-1.63,4.25-2.45l3.54,6.04c-7.64,4.47-15.52,8.8-23.45,12.89Z"/>
          </g>
          <g>
            <path class="cls-1" d="m131.16,125.49h.01s0,4.05,0,4.05h-.01c-1.7,1.58-3.39,3.16-5.06,4.77l-2.08-2.16c2.35-2.26,4.72-4.48,7.14-6.66Z"/>
            <path class="cls-1" d="m303.6,51.48c-27.01,2.89-53.29,9.34-78.38,19.2h-7.94c27.4-11.54,56.26-18.99,86-22.18l.32,2.98Z"/>
          </g>
          <path class="cls-1" d="m308.25,94.61c-6.33.35-12.65.82-18.96,1.43-26.29,2.49-52.39,7.16-77.84,13.93-6.27,1.67-12.52,3.47-18.74,5.39v-6.27c5.71-1.75,11.44-3.39,17.2-4.92,20.12-5.35,40.64-9.4,61.34-12.12h36.86l.14,2.56Z"/>
          <path class="cls-1" d="m526.38,128.54c-12.58,0-23.43,7.57-28.22,18.41h7.88c4.2-6.84,11.74-11.41,20.34-11.41,5.22,0,10.07,1.69,14,4.56,2.31-1.07,4.55-2.25,6.72-3.54-5.48-4.98-12.75-8.02-20.72-8.02Z"/>
          <path class="cls-1" d="m69.38,128.04c-2.79,0-5.5.37-8.08,1.06.02,2.79.03,5.58.04,8.37,2.51-.93,5.22-1.43,8.04-1.43,12.88,0,23.35,10.48,23.35,23.36s-10.47,23.35-23.35,23.35c-2.75,0-5.39-.48-7.85-1.36.02,2.8.03,5.59.04,8.38,2.5.64,5.11.98,7.81.98,17.29,0,31.35-14.07,31.35-31.35s-14.06-31.36-31.35-31.36Z"/>
          <path class="cls-1" d="m107.76,120.61c-1.77-1.73-3.65-3.33-5.64-4.8-9.04-6.7-20.23-10.67-32.33-10.67-2.92,0-5.79.23-8.59.68,0,3.05.03,6.09.04,9.13,2.77-.53,5.63-.81,8.55-.81,25.06,0,45.45,20.39,45.45,45.44,0,11.3-4.15,21.65-11,29.61-.12.14-.24.27-.38.41h0c-8.32,9.46-20.51,15.43-34.07,15.43-2.78,0-5.51-.25-8.15-.73.01,3.04.03,6.08.04,9.12,2.65.4,5.35.61,8.11.61,15.98,0,30.37-6.92,40.33-17.91,2-2.2,3.81-4.56,5.43-7.06,5.5-8.5,8.69-18.63,8.69-29.48,0-15.27-6.32-29.09-16.48-38.97Z"/>
          <path class="cls-1" d="m563.45,123.33c-1.06,1.16-2.16,2.28-3.3,3.36l1.06-3.97c.75.2,1.5.4,2.24.61Z"/>
        </g>
        <g>
          <path d="m11.67,247.52v11.24h10.45v31.28h11.76v-31.28h10.45v-11.24H11.67Z"/>
          <path d="m72.1,253.29v13.43h-14.21v-13.43h-10.3v36.75h10.3v-13.48h14.21v13.48h10.3v-36.75h-10.3Z"/>
          <path d="m116.06,263.13v-9.84h-28.89v36.75h28.89v-9.84h-18.59v-3.64h18.59v-9.84h-18.59v-3.59h18.59Z"/>
          <path d="m159.01,247.52h-24.37v42.52h11.76v-15.67h12.1c6.28,0,11.96-5.89,11.96-13.36,0-8.51-4.32-13.49-11.45-13.49Zm-2.22,15.61h-10.39v-4.37h10.39c1.11,0,1.91.67,1.91,2.13,0,1.33-.8,2.24-1.91,2.24Z"/>
          <path d="m173.47,253.29v36.75h10.3v-36.75h-10.3Z"/>
          <path d="m186.78,253.29v9.84h10.15v26.91h10.3v-26.91h10.15v-9.84h-30.6Z"/>
          <path d="m238.62,266.72h-6.73c-1.25,0-1.76-.85-1.76-1.82s.51-1.77,1.76-1.77h16.58v-9.84h-18.18c-4.88,0-10.65,3.16-10.65,11.67,0,8.07,4.37,11.6,10.09,11.6h7.89c1.3,0,1.91.61,1.91,1.76,0,1.03-.55,1.88-1.86,1.88h-17.48v9.84h18.58c6.94,0,11.26-5.1,11.26-11.96s-4.17-11.36-11.41-11.36Z"/>
          <path d="m252.29,253.29v9.84h10.14v26.91h10.3v-26.91h10.15v-9.84h-30.59Z"/>
          <path d="m299.61,252.69c-8.69,0-15.73,8.5-15.73,18.95s7.04,19.01,15.73,19.01,15.67-8.5,15.67-19.01-7.03-18.95-15.67-18.95Zm0,25.63c-3.12,0-5.58-2.98-5.58-6.74s2.46-6.68,5.58-6.68,5.52,2.97,5.52,6.68-2.46,6.74-5.52,6.74Z"/>
          <path d="m340.9,253.29h-21.85v36.75h10.29v-13.48h12.11c5.12,0,9.59-4.92,9.59-11.79,0-7.95-5.27-11.48-10.14-11.48Zm-1.36,13.49h-10.2v-3.71h10.2c.8,0,1.51.61,1.51,1.83,0,1.03-.71,1.88-1.51,1.88Z"/>
          <path class="cls-2" d="m392.49,247.52h-24.37v42.52h11.76v-15.67h12.1c6.28,0,11.96-5.89,11.96-13.36,0-8.51-4.32-13.49-11.45-13.49Zm-2.21,15.61h-10.4v-4.37h10.4c1.1,0,1.9.67,1.9,2.13,0,1.33-.8,2.24-1.9,2.24Z"/>
          <path class="cls-2" d="m438.95,264.77c0-7.95-5.27-11.48-10.15-11.48h-21.85v36.75h10.3v-13.54h4.67l6.08,13.54h10.85l-6.68-14.03c3.82-1.4,6.78-5.65,6.78-11.24Zm-11.5,2.01h-10.2v-3.71h10.2c.8,0,1.5.61,1.5,1.83,0,1.03-.7,1.88-1.5,1.88Z"/>
          <path class="cls-2" d="m471.6,263.13v-9.84h-28.88v36.75h28.88v-9.84h-18.58v-3.64h18.58v-9.84h-18.58v-3.59h18.58Z"/>
          <path class="cls-2" d="m494.36,266.72h-6.73c-1.26,0-1.76-.85-1.76-1.82s.5-1.77,1.76-1.77h16.57v-9.84h-18.18c-4.87,0-10.65,3.16-10.65,11.67,0,8.07,4.37,11.6,10.1,11.6h7.88c1.31,0,1.91.61,1.91,1.76,0,1.03-.55,1.88-1.86,1.88h-17.48v9.84h18.59c6.93,0,11.25-5.1,11.25-11.96s-4.17-11.36-11.4-11.36Z"/>
          <path class="cls-2" d="m527.76,266.72h-6.73c-1.26,0-1.76-.85-1.76-1.82s.5-1.77,1.76-1.77h16.58v-9.84h-18.19c-4.87,0-10.65,3.16-10.65,11.67,0,8.07,4.37,11.6,10.1,11.6h7.89c1.3,0,1.91.61,1.91,1.76,0,1.03-.56,1.88-1.86,1.88h-17.48v9.84h18.58c6.93,0,11.25-5.1,11.25-11.96s-4.17-11.36-11.4-11.36Z"/>
        </g>
      </g>
      <path class="cls-1" d="m193.01,70.75c-.1.06-.2.12-.3.17-.03.02-.06.04-.09.05-.33.19-.67.39-1.02.59.22-.41.6-.67,1.02-.76.03,0,.06-.02.09-.02.1-.02.2-.03.3-.03Z"/>
      <path class="cls-3" d="m262.28,70.85h.02s.07-.01.1-.01c.04-.01.08-.02.13-.01.02-.01.04-.01.06-.01h.08s.01,0,.01,0c.01-.01.02.01.02.01t.02,0s.05,0,.07,0h.01s0,.01.01.01h.07s.03,0,.04.01h.04"/>
      <path class="cls-3" d="m262.21,70.85h.04s.1-.02.16-.02c.03-.01.06-.01.1-.01h.08s.08,0,.11.01t.02,0s.01,0,.02.01c.02-.01.04,0,.06,0h.04s.05.01.05.01"/>
      <path class="cls-3" d="m262.1,70.85s.02-.01.04-.01c.01-.01.01,0,.01,0h0c.09-.02.18-.03.28-.03,0,0,0-.01.01-.01h.06s.09,0,.14.01c.01-.01.02-.01.03.01.01-.01.01,0,.01,0,.03-.01.06,0,.09,0,0,0,.01.01.02.01h.01s.01,0,.01,0h.01s.04.01.06.01t0,.01"/>
      <path class="cls-3" d="m261.69,70.85s.06-.01.1-.01t.02,0s.02-.01.03-.01h.05s.01,0,.01,0c.02-.01.04-.01.06-.01h.03s.05-.03.08-.03.05-.01.08-.01c.01-.01.02-.01.03-.01t.02,0s0-.01,0,0h0s.01-.02.02-.01c.05-.01.1-.01.15-.01h.08s.02.01.02.01c.01-.01.02-.01.03,0h0s.02,0,.03.01c.02-.01.04-.01.06,0h.01s.02.01.04.01c.01-.01.01,0,.01,0,.01-.01.02,0,.02,0,.02,0,.04.01.06.01s.05,0,.08,0c.03.01.06.02.09.03.02,0,.03.01.04.02"/>
      <path class="cls-3" d="m261.48,70.85s.01-.01.02,0c.06-.03.13-.05.2-.07h.05s.01-.01.02-.01h.05s.02-.01.03,0c.03-.01.07-.02.11-.01.02-.01.05-.01.08-.01,0,0,0-.01.01,0,0,0,0-.01.01,0h.03s.01.01.01.01h.02s.02-.01.03,0h.01s.03,0,.04,0h0c.08.01.16.02.23.04h.01s.04.01.06.02c0,0,.02.01.02.01"/>
      <path class="cls-3" d="m261.48,70.85s.02-.01.02-.01c0,0,.01-.01.02-.01.05-.02.11-.04.18-.05.02-.02.05-.02.07-.03h.03s.03-.01.05-.01h.09s0,0,.01,0h.02s.09-.01.14-.01c0,0,.01-.01.02,0h.02s.02.01.02.01h.11s0,0,.01,0h.02s.06,0,.09.01h.06s.02.01.02.01c.01,0,.02,0,.02.01.05.01.1.02.14.04.01-.01.02-.01.03.01.01,0,.02.01.03.01"/>
      <path class="cls-3" d="m261.5,70.85c.06-.03.13-.05.2-.07h0s.06-.02.09-.03h.04s.02,0,.03-.01h.07s.02,0,.03,0c.04-.01.09-.01.14-.01,0,0,.01-.01.02,0h.06s.01.01.01.01h.11s.08,0,.12.02h.03s.04.01.05.01h0s.02,0,.03.01c.03.01.06.02.09.04.01-.01.02-.01.03.01.01-.01.01,0,.01,0,.01-.01.02.01.02.01t.02,0s.01,0,.02.01"/>
      <path class="cls-3" d="m261.84,70.85s.02-.02.03-.01h.02s.01-.01.01-.01c.05-.03.1-.05.15-.05.03,0,.05-.01.08-.01,0-.01,0-.01.02,0,.01-.01.02-.01.03,0t.02,0s0-.01,0,0h0s.01-.02.02-.01c.05-.01.1-.01.15-.01h.05s.04,0,.05.01c.01-.01.02-.01.03,0h0s.02,0,.03.01c.02-.01.04-.01.06,0h.01s.02,0,.03,0,.01.01.01.01c.01-.01.01,0,.01,0,.01-.01.02,0,.02,0,.02,0,.04.01.06.01.05,0,.09.02.13.05.02-.01.03,0,.04.01"/>
      <path class="cls-3" d="m261.81,70.84s.02-.01.03-.01c.07-.03.15-.06.24-.08h.05s0-.01,0,0h.01s.04-.02.06-.01h.02s.02,0,.03,0h.05s.04,0,.06-.01h.07s.02,0,.02,0h.02s.01.01.01.01c.02-.01.03-.01.04,0h.01s.01,0,.01,0c.01-.01.01,0,.01,0,.01-.01.01,0,.01,0h0s.04,0,.06,0h.07s.03.01.03.01c.01-.01.01,0,.01,0h.02c.06.02.13.04.19.07"/>
      <path class="cls-3" d="m261.79,70.84s.01-.01.02,0h.01s.02-.01.02-.01h0c.06-.04.13-.06.21-.08,0,0,0-.01.01,0h.03s.03-.01.05-.01h.01s.04,0,.06,0h.03s.01,0,.02,0h.05s.02-.01.03-.01h.1s.02,0,.02,0c.01,0,.02,0,.03.01.02-.01.03-.01.04,0h.01s.01,0,.01,0c.01-.01.01,0,.01,0,.01-.01.01,0,.01,0,.02,0,.05,0,.07,0h.02s.04.01.05.01h.03s.01,0,.01,0c.06.01.12.03.17.06.02,0,.03,0,.04.01h.01"/>
      <path class="cls-3" d="m261.84,70.85h.03s.01-.02.02-.02c.01-.01.01,0,.01,0,.05-.03.1-.05.15-.05.01-.02.03-.02.05-.02h.03s0-.02,0-.01h.01s.04-.01.06-.01h.02s.03,0,.05,0c0,0,0,0,.01,0h.02s.06-.02.09,0c0,0,.01-.01.02-.01h.02s.02,0,.02,0h.05s.02,0,.03.01c.01-.01.01,0,.01,0,.01-.01.01,0,.01,0,.01-.01.01,0,.01,0h.06s0,0,.02,0h.05s.02,0,.02,0h.02s.02,0,.03.01c.13.02.24.05.35.1"/>
      <path class="cls-3" d="m261.63,70.82s.08-.03.12-.04c0,0,.01-.01.02-.01.02-.01.04-.02.07-.02.01,0,.02,0,.03-.01h.05s.01,0,.02,0h.03s.09-.01.14-.01c0,0,.01-.01.02,0h.02s.06-.01.06-.01c0,0,0-.01.01,0,.02,0,.04,0,.05.01.01-.01.01,0,.01,0,.01-.01.02-.01.03,0,.01-.01.01,0,.01,0h.06s.02.01.02.01c.03-.01.06,0,.09,0,.01,0,.01,0,.02,0h.03s.01,0,.01,0c.02.01.05.01.07.03.01-.01.02,0,.03,0s.01.01.01.01c.01-.01.01,0,.01,0,.04.01.07.02.1.04.01-.01.02,0,.03,0h0s.01.01.01.01h.02s.01.01.01.01c.01,0,.01.01.01.01"/>
      <path class="cls-3" d="m261.48,70.85s.01-.01.02,0h0s.01-.02.02-.02c.08-.04.16-.07.25-.08.01-.01.03-.01.04-.02.04,0,.07-.01.11-.01.07-.01.15-.02.23-.02h.03s.02,0,.03.01c0,0,0-.01.01,0,.03-.01.05-.01.08,0h.02s0,.01.02.01h.09s.04.01.06.01c.01,0,.01,0,.02,0s.02,0,.03.01c.03,0,.05.01.07.02h.01s.1.03.15.05c0,0,.01.01.02.01h.01s0,.01.01.01"/>
      <path class="cls-3" d="m261.69,70.85c.08-.04.17-.07.27-.09.04-.01.08-.02.13-.03h.06s.01-.01.02,0h.01s0-.01.01-.01c.02,0,.05-.01.08,0,.01-.01.01,0,.01,0,0,0,.01-.01.02-.01h.01s.02-.01.04,0h.05s.01.01.01.01h.03s.02,0,.02,0h.05s.02.01.02.01h.01s.01,0,.01,0c.01-.01.01,0,.01,0,.01-.01.01,0,.01,0h.09s.04,0,.04,0h0c.09.03.17.06.25.09h.01s.01.01.01.01"/>
      <path class="cls-3" d="m261.81,70.84h.01s0-.02.02-.02c.07-.03.13-.05.2-.07,0,0,0-.01.01,0,0,0,0-.01.01,0,.02-.01.03-.01.05-.02h.04s.01-.01.02,0c0,0,0-.01.01-.01h.01s.05-.01.08,0c.01-.01.01,0,.01,0,0,0,.01-.01.02-.01h.01s.02-.01.04,0h.03s.05-.01.07-.01h0s.03-.01.04,0c.01,0,.02.01.02.01.02-.01.04,0,.06,0h.03s.03.01.04.01h.02c.17.01.32.06.45.13"/>
      <path class="cls-3" d="m261.84,70.85h.03v-.02h.02s.01,0,.01,0c.05-.03.1-.05.15-.05.01-.02.03-.02.05-.02.01-.01.02-.01.03-.01t0,0h0s0-.01.01-.01c0,0,.01,0,.02,0h.07s.02-.01.03-.01c.01-.01.01,0,.01,0,.01-.01.02-.01.03,0,.01-.01.01,0,.01,0h.03s.03-.01.03-.01h.06s.01-.01.02-.01c.02-.01.03-.01.04,0,.01-.01.02-.01.02,0h.04s.01,0,.02.01h.05s.04.01.06.01c.1,0,.19.03.28.06.06.02.13.02.19.04"/>
      <path class="cls-3" d="m261.95,70.84s0-.01,0-.01h.01s0-.01.01-.01h.01s.05-.03.08-.03c.02-.01.04-.02.06-.02,0-.01,0-.01.02,0h0s0-.01.01-.01c.01-.01.03-.01.05-.02h.03s.01,0,.02,0h.05s.01-.01.01-.01h.1s0-.01.01-.01h.01s.05-.01.08,0c.01-.01.02-.01.03-.01h.1c.08,0,.15.01.22.02.01,0,.02,0,.02.01h.04"/>
      <path class="cls-3" d="m262.03,70.82h.01s.07-.03.11-.04c.01-.01.02-.01.03-.01t.02,0s0-.01,0,0h0s.01-.02.02-.01c.01-.02.03-.02.05-.02,0,0,0,0,.01,0h.01s0,0,.01,0c.02,0,.04,0,.06-.01h.07s.02,0,.02,0h.02s.03-.01.04-.01c.02-.01.04,0,.06,0h.01s.06-.01.06-.01h.03s.01-.01.02,0c.06,0,.12.01.17.02.02,0,.04,0,.06.01"/>
      <path class="cls-3" d="m261.69,70.82s.08-.04.13-.05c.03-.01.06-.02.09-.03h.01s.01,0,.02,0h.03s.09-.01.14-.01c.01-.01.03-.01.04-.01h.06s0-.01.01,0c.01-.01.02-.01.03-.01h.03s.05,0,.07.01h.09s.01,0,.02.01h.05s.04,0,.05.01c.01-.01.01,0,.01,0h.09c.06.03.12.04.17.07.03.01.06.02.09.03.01,0,.02.01.03.02h0"/>
      <path class="cls-3" d="m261.63,70.82s.08-.03.12-.04c0,0,.01-.01.02-.01.02-.01.04-.02.07-.02.01,0,.02,0,.03-.01h.05s.01,0,.02,0h.03s.09-.01.14-.01c0,0,.01-.01.02,0h.02s.06-.01.06-.01c0,0,0-.01.01,0,.02,0,.04,0,.05.01.01-.01.01,0,.01,0,.01-.01.02-.01.03,0,.01-.01.01,0,.01,0h.06s.02.01.02.01c.03-.01.06,0,.09,0,.01,0,.01,0,.02,0h.03s.01,0,.01,0c.02.01.05.01.07.03.01-.01.02,0,.03,0s.01.01.01.01c.01-.01.01,0,.01,0,.04.01.07.02.1.04.01-.01.02,0,.03,0h0s.01.01.01.01h.02s.01.01.01.01c.01,0,.01.01.01.01"/>
      <path class="cls-3" d="m261.48,70.85s.02-.01.02-.01c0,0,.01-.01.02-.01.03-.01.06-.02.08-.03.07-.03.13-.06.21-.07.04-.01.09-.02.14-.02.06-.01.13-.02.2-.02t.02,0s.06,0,.08.01h.03s.05,0,.07.01h.09s.02.01.02.01h.05s.02.01.02.01h.01s.01,0,.01,0c.04,0,.07.01.1.03.01,0,.01.01.01.01.01-.01.01,0,.01,0,.01-.01.02,0,.02,0,.04.01.07.02.11.04h.01s0,.01.01.01h0s.01.01.01.01h0s.01.01.01.01"/>
      <path class="cls-3" d="m261.69,70.82s.1-.04.16-.05c.02-.02.04-.02.07-.03h.02s0,0,.01,0h.02c.06-.01.12-.02.18-.02h.01s.01-.01.02-.01c.02-.01.04-.01.07,0h.02s.04-.01.06-.01h.04s.06,0,.08.01h0s.03-.01.04,0c.01,0,.02.01.02.01.02-.01.04,0,.06,0h.03s.03.01.04.01h.02s.03.01.05.02h.02s.01.01.01.01h.02c.06.01.11.03.15.06.02,0,.03,0,.04.01.01,0,.01.01.01.01.01,0,.01.01.01.01"/>
      <path class="cls-3" d="m262.04,70.82s.07-.03.11-.04c.01-.01.02-.01.03-.01t.02,0h0s0-.01,0-.01c0,0,.01-.01.02,0,.01-.02.03-.02.05-.02,0,0,0,0,.01,0h0s0,0,.01,0h.01s0-.01.01-.01h.03s.03-.01.03-.01h.02s.03-.01.05-.01h0s.03-.01.04,0c.01-.01.02-.01.02,0,.02-.01.05-.02.08-.01.03-.01.06-.01.1-.01.02,0,.04,0,.06.01,0-.01.02-.01.03,0,.01-.01.01,0,.01,0"/>
      <path class="cls-3" d="m261.81,70.84h.01s.02-.01.02-.01h0c.07-.04.13-.06.2-.08,0,0,0-.01.01,0,0,0,0-.01.01,0,.01-.01.02-.02.03-.02h.02s.01-.01.02-.01h.02s.06-.01.06-.01c0,0,0-.01.01,0,.01-.01.02-.01.03-.01h.03s.03-.01.05-.01h.04s.02-.01.03,0c.03-.01.06-.01.1-.01s.07,0,.1.01c.03-.01.05,0,.07.01h.01s.01-.01.02,0t.02,0s.1.01.15.02c.01,0,.02,0,.02.01.1.02.19.05.27.1"/>
      <path class="cls-3" d="m261.63,70.82s.08-.03.12-.04c0,0,.01-.01.02-.01.02-.01.04-.02.07-.02,0,0,0-.01.01-.01h.02s.03-.02.05-.02c.01,0,.02,0,.03-.01.06-.01.13-.02.2-.02t.02,0s.05-.01.08-.01h.04s.05,0,.07.01h.01s.02-.01.03,0c.02-.01.04,0,.06.01.02-.01.03-.01.04,0,.01-.01.02-.01.02,0h.04s.01,0,.02.01h.05s0,.01.02.01h.02s.02.01.03.02c0,0,.02,0,.02,0,.01,0,.02.01.02.01.01-.01.01,0,.01,0,.06.01.12.03.17.06.02.01.03.01.04.02t.02.01"/>
      <path class="cls-1" d="m263.58,91.64h0s-.05.05-.08.06c.03-.02.05-.04.08-.06Z"/>
      <path class="cls-1" d="m263.58,91.64h0s-.05.05-.08.06c.03-.02.05-.04.08-.06Z"/>
      <rect class="cls-1" x="262.67" y="92.03" width=".01" height=".01"/>
      <g>
        <rect class="cls-1" x="262.64" y="92.03" width=".01" height=".01"/>
        <rect class="cls-1" x="262.67" y="92.03" width=".01" height=".01"/>
      </g>
      <g>
        <path class="cls-1" d="m262.58,92.04h.01s0,0-.01,0h0Z"/>
        <rect class="cls-1" x="262.64" y="92.03" width=".01" height=".01"/>
        <rect class="cls-1" x="262.67" y="92.03" width=".01" height=".01"/>
      </g>
      <rect class="cls-1" x="262.64" y="92.03" width=".01" height=".01"/>
      <g>
        <rect class="cls-1" x="262.64" y="92.03" width=".01" height=".01"/>
        <rect class="cls-1" x="262.67" y="92.03" width=".01" height=".01"/>
        <path class="cls-1" d="m262.72,92.04s.01,0,.02,0h-.04s-.01,0-.01,0h.03Z"/>
        <path class="cls-1" d="m262.79,92.04h0s-.01,0-.02,0c.01,0,.02,0,.02,0Z"/>
        <path class="cls-1" d="m263.45,91.85c.06-.04.12-.08.18-.12-.05.05-.11.08-.16.12h-.02Z"/>
      </g>
      <g>
        <rect class="cls-1" x="262.64" y="92.03" width=".01" height=".01"/>
        <rect class="cls-1" x="262.67" y="92.03" width=".01" height=".01"/>
        <path class="cls-1" d="m262.72,92.04s.01,0,.02,0h-.04s-.01,0-.01,0h.03Z"/>
        <path class="cls-1" d="m262.79,92.04h0s-.01,0-.02,0c.01,0,.02,0,.02,0Z"/>
        <path class="cls-1" d="m263.45,91.85c.06-.04.12-.08.18-.12-.05.05-.11.08-.16.12h-.02Z"/>
      </g>
      <g>
        <rect class="cls-1" x="262.64" y="92.03" width=".01" height=".01"/>
        <rect class="cls-1" x="262.67" y="92.03" width=".01" height=".01"/>
        <path class="cls-1" d="m262.72,92.04s.01,0,.02,0h-.04s-.01,0-.01,0h.03Z"/>
        <path class="cls-1" d="m262.79,92.04h0s-.01,0-.02,0c.01,0,.02,0,.02,0Z"/>
        <path class="cls-1" d="m263.45,91.85c.06-.04.12-.08.18-.12-.05.05-.11.08-.16.12h-.02Z"/>
      </g>
      <g>
        <path class="cls-1" d="m262.58,92.04h.01s0,0-.01,0h0Z"/>
        <rect class="cls-1" x="262.64" y="92.03" width=".01" height=".01"/>
        <rect class="cls-1" x="262.67" y="92.03" width=".01" height=".01"/>
      </g>
      <g>
        <path class="cls-1" d="m262.58,92.04h.01s0,0-.01,0h0Z"/>
        <rect class="cls-1" x="262.64" y="92.03" width=".01" height=".01"/>
        <rect class="cls-1" x="262.67" y="92.03" width=".01" height=".01"/>
        <path class="cls-1" d="m263.58,91.64h0s-.05.05-.08.06c.03-.02.05-.04.08-.06Z"/>
      </g>
      <rect class="cls-1" x="262.64" y="92.03" width=".01" height=".01"/>
      <rect class="cls-1" x="262.64" y="92.03" width=".01" height=".01"/>
      <g>
        <rect class="cls-1" x="262.64" y="92.03" width=".01" height=".01"/>
        <rect class="cls-1" x="262.67" y="92.03" width=".01" height=".01"/>
        <path class="cls-1" d="m262.74,92.05h-.04s-.01,0-.01,0h.03s.01,0,.02,0Z"/>
        <path class="cls-1" d="m263.63,91.73c-.05.05-.11.08-.16.12h-.02c.06-.04.12-.08.18-.12Z"/>
      </g>
      <path class="cls-1" d="m263.45,91.85c.06-.04.12-.08.18-.12-.05.05-.11.08-.16.12h-.02Z"/>
      <path class="cls-1" d="m263.45,91.85c.06-.04.12-.08.18-.12-.05.05-.11.08-.16.12h-.02Z"/>
      <rect x="123.67" y="118.03" width="7.5" height="32.5"/>
      <rect class="cls-1" x="432.32" y="185.66" width="5.69" height="7"/>
      <g>
        <path class="cls-1" d="m299.14,92.05l-9.8.52c.88-.07,3.57-.27,7.14-.52h2.66Z"/>
        <path class="cls-1" d="m299.14,92.05h-10.16l.05.54.26,3.45v.04c11.94-.9,30.28-2.11,35.87-2.07.5.01.91.02,1.19.05l.24-2.64c-.54.19-1.1.33-1.67.43-.7.13-1.42.2-2.16.2h-23.62Z"/>
      </g>
      <g>
        <line class="cls-3" x1="328.58" y1="68.39" x2="324.94" y2="70.74"/>
        <path class="cls-1" d="m330.48,71.33l-.88.57c-1.36-.66-2.93-1.04-4.66-1.16-.44-.04-.9-.06-1.36-.06h-5.01l8.02-5.17.09-.06,1.9,2.94,1.9,2.94Z"/>
      </g>
      <path d="m262.33,70.68c1.93,0,1.93-3,0-3s-1.93,3,0,3h0Z"/>
    </g>
  </g>
</svg>