<?xml version="1.0" encoding="UTF-8"?>
<svg id="Layer_2" data-name="Layer 2" xmlns="http://www.w3.org/2000/svg" viewBox="0 0 145.25 55.96">
  <defs>
    <style>
      .cls-1 {
        fill: #fff;
      }

      .cls-2 {
        fill: #ff2800;
      }
    </style>
  </defs>
  <g id="Layer_1-2" data-name="Layer 1">
    <g>
      <g>
        <path d="m15.28,17.7H.17c-.09,0-.17-.08-.17-.17V4.14c0-.05.02-.1.06-.13,0,0,.05-.04.13-.04.17,0,16.83,4.49,23.7,4.64,7.71.17,23.96-4.67,24.21-4.64.13.02.17.09.17.09.01.02.02.05.02.08v13.38c0,.09-.08.17-.17.17h-15.11c-.09,0-.17.08-.17.17v37.92c0,.09-.08.17-.17.17H15.62c-.09,0-.17-.08-.17-.17-.06-12.7-.11-25.39-.17-38.09Z"/>
        <path class="cls-2" d="m141.12,8.69c-5.11-5.25-12.18-4.46-13.03-4.34,0,0,0,0-.01,0-3.33.6-5.93,1.27-7.19,1.62-.36.1-.52.15-.73.2-2.11.59-6.06,1.7-10.97,1.83-4.52.12-7.88-.65-10.36-1.22-.28-.06-5.62-1.3-6.56-2.17v51.18c0,.09.08.17.17.17h17.05c.09,0,.17-.08.17-.17v-18.83c0-.09.08-.17.17-.17h17.74c9.29,0,17.68-7.21,17.68-16.35,0-1.39.31-7.2-4.12-11.75Zm-16.29,14.36h-15c-.09,0-.17-.08-.17-.17v-5.01c0-.09.08-.17.17-.17h15.21c1.39,0,2.46.59,2.75,1.86.41,1.8-1.1,3.48-2.95,3.48Z"/>
        <path d="m97.1,8.69C91.02,1.1,80.66.52,72.64.08c-3.74-.21-9.34-.11-16.08,1.34-1.19.36-2.37.74-3.56,1.11-1.01.31-2.16.77-3.19.91-.07.02-.15.02-.22.03-.08.03-.16.05-.25.07,0,0,0,0-.01,0-.24.13-.51.22-.81.28-.08.03-.16.07-.25.09v.16s0,51.7,0,51.7c0,.09.08.17.17.17h17.05c.09,0,.17-.08.17-.17v-18.83c0-.09.08-.17.17-.17h17.74c4.64,0,9.06-1.8,12.32-4.75.82-.74,5.11-4.99,5.36-11.6.23-6.16-3.1-10.47-4.12-11.75Zm-16.29,14.36h-15c-.09,0-.17-.08-.17-.17v-5.01c0-.09.08-.17.17-.17h15.21c1.39,0,2.46.59,2.75,1.86.41,1.8-1.1,3.48-2.95,3.48Z"/>
      </g>
      <rect class="cls-1" x="48.22" y="17.7" width="17.41" height="5.35"/>
      <rect class="cls-1" x="100.67" y="17.75" width="17.53" height="5.29"/>
      <path d="m100.23,14.19s2.45,6.04-.37,12.14"/>
    </g>
    <path class="cls-1" d="m65.76,20.69c1.93,0,1.93-3,0-3s-1.93,3,0,3h0Z"/>
    <path class="cls-1" d="m65.65,23.03c1.93,0,1.93-3,0-3s-1.93,3,0,3h0Z"/>
    <path class="cls-1" d="m65.71,23.03c1.93,0,1.93-3,0-3s-1.93,3,0,3h0Z"/>
    <path class="cls-1" d="m65.68,23.05c1.93,0,1.93-3,0-3s-1.93,3,0,3h0Z"/>
    <path class="cls-1" d="m66.92,20.18s-.04-.09-.06-.14l.15.36c-.09-.22-.16-.45-.19-.68-.05-.2-.14-.37-.27-.51-.11-.16-.25-.29-.42-.39-.17-.11-.36-.17-.56-.18-.2-.04-.4-.04-.6.03l-.36.15c-.23.13-.4.31-.54.54l-.15.36c-.07.27-.07.53,0,.8.02.14.06.29.1.43.08.26.19.51.31.75.09.17.22.32.39.42.14.13.31.22.51.27.2.06.4.07.6.03.2,0,.39-.07.56-.18l.3-.23c.19-.19.31-.41.39-.66l.05-.4c0-.27-.07-.52-.2-.76h0Z"/>
    <path class="cls-1" d="m65.34,21.42c1.93,0,1.93-3,0-3s-1.93,3,0,3h0Z"/>
    <path class="cls-1" d="m48.27,20.7c1.93,0,1.93-3,0-3s-1.93,3,0,3h0Z"/>
    <path class="cls-1" d="m46.79,19.38c0,.19,0,.38,0,.58,0,.21.04.4.13.58.06.19.16.35.31.48.14.15.3.25.48.31.18.09.37.14.58.13l.4-.05c.25-.07.47-.2.66-.39l.23-.3c.14-.23.2-.49.2-.76,0-.19,0-.38,0-.58,0-.21-.04-.4-.13-.58-.06-.19-.16-.35-.31-.48-.14-.15-.3-.25-.48-.31-.18-.09-.37-.14-.58-.13l-.4.05c-.25.07-.47.2-.66.39l-.23.3c-.14.23-.2.49-.2.76h0Z"/>
    <path class="cls-1" d="m48.26,20.69c1.93,0,1.93-3,0-3s-1.93,3,0,3h0Z"/>
    <path class="cls-1" d="m48.26,23.04c1.93,0,1.93-3,0-3s-1.93,3,0,3h0Z"/>
    <path class="cls-1" d="m49.36,20.09v-.03c-.01.13-.03.27-.05.4.02-.16.07-.32.13-.47l-.15.36s.02-.04.02-.05l-2.74-.36c.02.09.04.17.05.26l-.05-.4c.06.44.02.88.05,1.31,0,.21.04.4.13.58.06.19.16.35.31.48.14.15.3.25.48.31.18.09.37.14.58.13l.4-.05c.25-.07.47-.2.66-.39.26-.28.47-.67.44-1.06-.02-.27-.01-.54-.02-.81,0-.39-.04-.79-.14-1.17l-.15-.36-.23-.3-.3-.23c-.17-.11-.36-.17-.56-.18-.13-.04-.27-.04-.4,0-.14,0-.26.03-.38.1-.13.04-.24.1-.33.19-.16.11-.29.25-.39.42-.09.2-.19.41-.25.63s-.08.46-.11.68c0,.21.04.4.13.58.06.19.16.35.31.48.14.15.3.25.48.31.18.09.37.14.58.13l.4-.05c.25-.07.47-.2.66-.39l.23-.3c.14-.23.2-.49.2-.76h0Z"/>
    <path class="cls-1" d="m48.19,23.04c1.93,0,1.93-3,0-3s-1.93,3,0,3h0Z"/>
  </g>
</svg>